<svg width="120" height="26" viewBox="0 0 120 26" fill="none" xmlns="http://www.w3.org/2000/svg">
<rect x="0.5" y="12.5" width="16" height="1" fill="#CF8C0B"/>
<g clip-path="url(#clip0_0_77)">
<path d="M34.8649 10.02C35.4516 10.02 35.9916 10.16 36.4849 10.44C36.9916 10.72 37.3916 11.14 37.6849 11.7C37.9916 12.26 38.1449 12.94 38.1449 13.74C38.1449 14.7 37.9383 15.52 37.5249 16.2C37.1249 16.88 36.5916 17.3933 35.9249 17.74C35.2583 18.0867 34.5516 18.26 33.8049 18.26C32.7649 18.26 31.8316 17.9533 31.0049 17.34L29.3049 18.12H29.2649C29.2116 18.12 29.1783 18.0933 29.1649 18.04C29.1516 18 29.1649 17.9667 29.2049 17.94C29.5649 17.7133 29.8249 17.4533 29.9849 17.16C30.1583 16.8533 30.2449 16.4467 30.2449 15.94V6.16C30.2449 5.69333 30.1983 5.36 30.1049 5.16C30.0116 4.94667 29.8516 4.84 29.6249 4.84C29.4649 4.84 29.2049 4.92 28.8449 5.08H28.8249C28.7716 5.08 28.7316 5.04667 28.7049 4.98C28.6783 4.91333 28.6783 4.86667 28.7049 4.84L31.4849 3.52L31.5849 3.5C31.6383 3.5 31.6983 3.52667 31.7649 3.58C31.8316 3.63333 31.8649 3.68 31.8649 3.72V11.5C32.3049 11.0467 32.7649 10.6867 33.2449 10.42C33.7249 10.1533 34.2649 10.02 34.8649 10.02ZM34.3249 17.86C34.9783 17.86 35.4783 17.5667 35.8249 16.98C36.1716 16.3933 36.3449 15.56 36.3449 14.48C36.3449 13.3067 36.1316 12.4267 35.7049 11.84C35.2916 11.24 34.7316 10.94 34.0249 10.94C33.3449 10.94 32.6249 11.2467 31.8649 11.86V14.92C31.8649 15.6133 31.9916 16.18 32.2449 16.62C32.5116 17.06 32.8316 17.38 33.2049 17.58C33.5916 17.7667 33.9649 17.86 34.3249 17.86ZM43.5184 18.26C42.7184 18.26 42.0117 18.0733 41.3984 17.7C40.785 17.3133 40.3117 16.8 39.9784 16.16C39.645 15.5067 39.4784 14.8 39.4784 14.04C39.4784 13.1733 39.6917 12.44 40.1184 11.84C40.5584 11.2267 41.1117 10.7733 41.7784 10.48C42.4584 10.1733 43.1517 10.02 43.8584 10.02C44.6717 10.02 45.3784 10.2133 45.9784 10.6C46.5917 10.9867 47.0584 11.5 47.3784 12.14C47.6984 12.7667 47.8584 13.44 47.8584 14.16C47.8584 14.96 47.6584 15.6733 47.2584 16.3C46.8717 16.9267 46.345 17.4133 45.6784 17.76C45.0117 18.0933 44.2917 18.26 43.5184 18.26ZM44.1184 17.86C44.705 17.86 45.1517 17.6 45.4584 17.08C45.7784 16.56 45.9384 15.8 45.9384 14.8C45.9384 13.9067 45.8117 13.1267 45.5584 12.46C45.3184 11.7933 44.985 11.2867 44.5584 10.94C44.145 10.5933 43.6917 10.42 43.1984 10.42C42.5984 10.42 42.145 10.6667 41.8384 11.16C41.5317 11.6533 41.3784 12.38 41.3784 13.34C41.3784 14.2067 41.4917 14.9867 41.7184 15.68C41.9584 16.36 42.285 16.8933 42.6984 17.28C43.125 17.6667 43.5984 17.86 44.1184 17.86ZM58.6249 17.76C58.6649 17.76 58.6849 17.8 58.6849 17.88C58.6849 17.96 58.6649 18 58.6249 18C58.2916 18 58.0316 17.9933 57.8449 17.98L56.6849 17.96L55.5449 17.98C55.3449 17.9933 55.0783 18 54.7449 18C54.7049 18 54.6849 17.96 54.6849 17.88C54.6849 17.8 54.7049 17.76 54.7449 17.76C55.1983 17.76 55.4983 17.6667 55.6449 17.48C55.7916 17.2933 55.8649 16.9267 55.8649 16.38V13.38C55.8649 12.6333 55.7249 12.0867 55.4449 11.74C55.1783 11.38 54.7516 11.2 54.1649 11.2C53.8183 11.2 53.4649 11.28 53.1049 11.44C52.7449 11.6 52.4183 11.8133 52.1249 12.08V16.38C52.1249 16.9267 52.1983 17.2933 52.3449 17.48C52.4916 17.6667 52.7916 17.76 53.2449 17.76C53.2849 17.76 53.3049 17.8 53.3049 17.88C53.3049 17.96 53.2849 18 53.2449 18C52.9116 18 52.6516 17.9933 52.4649 17.98L51.3049 17.96L50.1449 17.98C49.9583 17.9933 49.6983 18 49.3649 18C49.3249 18 49.3049 17.96 49.3049 17.88C49.3049 17.8 49.3249 17.76 49.3649 17.76C49.8183 17.76 50.1183 17.6667 50.2649 17.48C50.4116 17.2933 50.4849 16.9267 50.4849 16.38V12.56C50.4849 12.1333 50.4316 11.82 50.3249 11.62C50.2316 11.42 50.0716 11.32 49.8449 11.32C49.6449 11.32 49.3116 11.42 48.8449 11.62H48.8249C48.7716 11.62 48.7316 11.5867 48.7049 11.52C48.6783 11.4533 48.6849 11.4133 48.7249 11.4L51.3449 10.12C51.4249 10.0933 51.4716 10.08 51.4849 10.08C51.6183 10.08 51.7516 10.2333 51.8849 10.54C52.0316 10.8333 52.1116 11.22 52.1249 11.7C53.0583 10.5933 54.0716 10.04 55.1649 10.04C55.8983 10.04 56.4716 10.2667 56.8849 10.72C57.2983 11.16 57.5049 11.76 57.5049 12.52V16.38C57.5049 16.9267 57.5783 17.2933 57.7249 17.48C57.8716 17.6667 58.1716 17.76 58.6249 17.76ZM61.6337 7.98C61.287 7.98 61.0137 7.88667 60.8137 7.7C60.627 7.51333 60.5337 7.24667 60.5337 6.9C60.5337 6.56667 60.627 6.31333 60.8137 6.14C61.0137 5.95333 61.287 5.86 61.6337 5.86C61.967 5.86 62.227 5.95333 62.4137 6.14C62.6003 6.31333 62.6937 6.56667 62.6937 6.9C62.6937 7.24667 62.6003 7.51333 62.4137 7.7C62.2403 7.88667 61.9803 7.98 61.6337 7.98ZM62.6337 10.74C62.607 11.3 62.5937 11.96 62.5937 12.72V18.96C62.5937 19.8667 62.487 20.6067 62.2737 21.18C62.0737 21.7667 61.7337 22.2533 61.2537 22.64C60.787 23.0267 60.127 23.36 59.2737 23.64C59.247 23.6533 59.2137 23.62 59.1737 23.54C59.147 23.4733 59.1537 23.4333 59.1937 23.42C59.8337 23.14 60.287 22.6933 60.5537 22.08C60.8203 21.4667 60.9537 20.58 60.9537 19.42V12.74C60.9537 12.2733 60.907 11.94 60.8137 11.74C60.7337 11.54 60.587 11.44 60.3737 11.44C60.1603 11.44 59.8937 11.52 59.5737 11.68H59.5537C59.5003 11.68 59.4537 11.6467 59.4137 11.58C59.387 11.5133 59.3937 11.4667 59.4337 11.44L62.3137 10.1L62.3737 10.08C62.427 10.08 62.4803 10.1133 62.5337 10.18C62.6003 10.2333 62.6337 10.28 62.6337 10.32V10.74ZM68.9285 18.26C68.1285 18.26 67.4218 18.0733 66.8085 17.7C66.1952 17.3133 65.7218 16.8 65.3885 16.16C65.0552 15.5067 64.8885 14.8 64.8885 14.04C64.8885 13.1733 65.1018 12.44 65.5285 11.84C65.9685 11.2267 66.5218 10.7733 67.1885 10.48C67.8685 10.1733 68.5618 10.02 69.2685 10.02C70.0818 10.02 70.7885 10.2133 71.3885 10.6C72.0018 10.9867 72.4685 11.5 72.7885 12.14C73.1085 12.7667 73.2685 13.44 73.2685 14.16C73.2685 14.96 73.0685 15.6733 72.6685 16.3C72.2818 16.9267 71.7552 17.4133 71.0885 17.76C70.4218 18.0933 69.7018 18.26 68.9285 18.26ZM69.5285 17.86C70.1152 17.86 70.5618 17.6 70.8685 17.08C71.1885 16.56 71.3485 15.8 71.3485 14.8C71.3485 13.9067 71.2218 13.1267 70.9685 12.46C70.7285 11.7933 70.3952 11.2867 69.9685 10.94C69.5552 10.5933 69.1018 10.42 68.6085 10.42C68.0085 10.42 67.5552 10.6667 67.2485 11.16C66.9418 11.6533 66.7885 12.38 66.7885 13.34C66.7885 14.2067 66.9018 14.9867 67.1285 15.68C67.3685 16.36 67.6952 16.8933 68.1085 17.28C68.5352 17.6667 69.0085 17.86 69.5285 17.86ZM83.8551 16.74C83.8951 16.74 83.9284 16.7733 83.9551 16.84C83.9817 16.9067 83.9751 16.9533 83.9351 16.98L81.3151 18.24L81.2351 18.26C81.1017 18.26 80.9817 18.1133 80.8751 17.82C80.7684 17.5133 80.7084 17.1067 80.6951 16.6C79.7617 17.68 78.7751 18.22 77.7351 18.22C77.0151 18.22 76.4551 18 76.0551 17.56C75.6551 17.1067 75.4551 16.4933 75.4551 15.72V12.74C75.4551 11.8333 75.2484 11.38 74.8351 11.38C74.7017 11.38 74.5151 11.4333 74.2751 11.54H74.2551C74.2017 11.54 74.1617 11.5067 74.1351 11.44C74.1084 11.3733 74.1151 11.3267 74.1551 11.3L76.6951 10.12L76.7751 10.1C76.8284 10.1 76.8884 10.1267 76.9551 10.18C77.0217 10.2333 77.0551 10.28 77.0551 10.32V14.86C77.0551 15.6067 77.1884 16.1667 77.4551 16.54C77.7351 16.9 78.1551 17.08 78.7151 17.08C79.0484 17.08 79.3884 17 79.7351 16.84C80.0951 16.68 80.4151 16.46 80.6951 16.18V12.74C80.6951 12.2733 80.6417 11.9333 80.5351 11.72C80.4417 11.4933 80.2884 11.38 80.0751 11.38C79.9551 11.38 79.7684 11.4333 79.5151 11.54H79.4951C79.4417 11.54 79.4017 11.5067 79.3751 11.44C79.3484 11.36 79.3617 11.3133 79.4151 11.3L81.9351 10.12C81.9617 10.1067 81.9951 10.1 82.0351 10.1C82.0884 10.1 82.1484 10.1267 82.2151 10.18C82.2817 10.2333 82.3151 10.28 82.3151 10.32V15.74C82.3151 16.2067 82.3617 16.5333 82.4551 16.72C82.5484 16.9067 82.7017 17 82.9151 17C83.0751 17 83.3751 16.92 83.8151 16.76L83.8551 16.74ZM89.7946 10.08C90.1013 10.08 90.3946 10.18 90.6746 10.38C90.9546 10.58 91.0946 10.82 91.0946 11.1C91.0946 11.3533 91.0146 11.56 90.8546 11.72C90.7079 11.88 90.5013 11.96 90.2346 11.96C90.0613 11.96 89.9146 11.9267 89.7946 11.86C89.6879 11.78 89.5746 11.6733 89.4546 11.54C89.3346 11.42 89.2279 11.3333 89.1346 11.28C89.0413 11.2133 88.9279 11.18 88.7946 11.18C88.6479 11.18 88.4879 11.24 88.3146 11.36C88.1546 11.4667 87.9013 11.7 87.5546 12.06V16.38C87.5546 16.7533 87.6079 17.04 87.7146 17.24C87.8213 17.4267 88.0013 17.56 88.2546 17.64C88.5079 17.72 88.8813 17.76 89.3746 17.76C89.4279 17.76 89.4546 17.8 89.4546 17.88C89.4546 17.96 89.4279 18 89.3746 18C88.9346 18 88.5813 17.9933 88.3146 17.98L86.7346 17.96L85.5746 17.98C85.3879 17.9933 85.1279 18 84.7946 18C84.7546 18 84.7346 17.96 84.7346 17.88C84.7346 17.8 84.7546 17.76 84.7946 17.76C85.2479 17.76 85.5479 17.6667 85.6946 17.48C85.8413 17.2933 85.9146 16.9267 85.9146 16.38V12.56C85.9146 12.1333 85.8613 11.82 85.7546 11.62C85.6613 11.42 85.5013 11.32 85.2746 11.32C85.0746 11.32 84.7413 11.42 84.2746 11.62H84.2546C84.2013 11.62 84.1613 11.5867 84.1346 11.52C84.1079 11.4533 84.1146 11.4133 84.1546 11.4L86.7746 10.12C86.8546 10.0933 86.9013 10.08 86.9146 10.08C87.0479 10.08 87.1813 10.2267 87.3146 10.52C87.4479 10.8 87.5279 11.1733 87.5546 11.64C88.0746 11.0533 88.5079 10.6467 88.8546 10.42C89.2013 10.1933 89.5146 10.08 89.7946 10.08Z" fill="#CF8C0B"/>
</g>
<rect x="103.5" y="12.5" width="16" height="1" fill="#CF8C0B"/>
<defs>
<clipPath id="clip0_0_77">
<rect width="63" height="26" fill="white" transform="translate(28.5)"/>
</clipPath>
</defs>
</svg>
